<svg width="60" height="59" viewBox="0 0 60 59" fill="none" xmlns="http://www.w3.org/2000/svg">
<path d="M30 59C13.4625 59 0 45.7619 0 29.5C0 13.2381 13.4625 0 30 0C46.5375 0 60 13.2381 60 29.5C60 45.7619 46.5375 59 30 59ZM55.3 33.5366C54.425 33.2662 47.375 31.1938 39.34 32.4598C42.69 41.5163 44.0575 48.8913 44.32 50.4253C50.07 46.6026 54.16 40.5428 55.3075 33.5366H55.3ZM40.0125 52.7313C39.63 50.5187 38.1375 42.8192 34.5375 33.63L34.3725 33.6792C19.8975 38.6327 14.7225 48.4906 14.2725 49.4125C18.5975 52.7509 24.0725 54.7373 29.9975 54.7373C33.5475 54.7373 36.9225 54.0243 39.9975 52.7362L40.0125 52.7313ZM10.9625 46.3888C11.5425 45.4054 18.575 33.9619 31.7925 29.7581C32.13 29.6475 32.4675 29.5516 32.805 29.4631C32.155 28.025 31.455 26.5942 30.725 25.1856C17.925 28.9469 5.515 28.7871 4.39 28.7625L4.38 29.5295C4.38 36.0023 6.875 41.9121 10.965 46.3814L10.9625 46.3888ZM4.9125 24.3744C6.0625 24.394 16.62 24.4383 28.605 21.3064C24.36 13.8871 19.78 7.64296 19.105 6.73338C11.935 10.0521 6.58 16.5421 4.915 24.3596L4.9125 24.3744ZM24 5.0445C24.705 5.97867 29.3625 12.2081 33.555 19.7945C42.6675 16.4389 46.53 11.3378 46.9875 10.6937C42.4625 6.73583 36.5125 4.3365 30 4.3365C27.9375 4.3365 25.925 4.58233 24 5.03713V5.0445ZM49.8375 13.6069C49.2925 14.3198 45 19.7355 35.5275 23.5385C36.1275 24.7431 36.7025 25.96 37.2275 27.1916C37.4275 27.6341 37.6025 28.0766 37.7775 28.4945C46.3025 27.4375 54.7775 29.1337 55.6275 29.3058C55.5775 23.3566 53.4275 17.8991 49.8525 13.6216L49.8375 13.6069Z" fill="#E14400"/>
</svg>
